<?xml version="1.0" encoding="UTF-8"?>
<svg id="Layer_1" data-name="Layer 1" xmlns="http://www.w3.org/2000/svg" viewBox="0 0 1080 1080">
  <defs>
    <style>
      .cls-1 {
        fill: #292974;
      }

      .cls-2 {
        fill: #6f5523;
      }

      .cls-3 {
        fill: #fff;
      }
    </style>
  </defs>
  <circle class="cls-2" cx="540" cy="540" r="481.13"/>
  <circle class="cls-3" cx="540" cy="540" r="431.35"/>
  <g>
    <path class="cls-1" d="M742.32,729.44c-5.55,10.2-5.7,19.84-8.27,30.47l-170.91,100.1c-22.02-24.12-54.69-24.59-79.62-4.45-55.39-32.81-110.96-65.31-166.45-97.95-23.35-13.73-75.22-34.52-78.43-64.1l-.05-275.44c1.16-9.51,2.36-17.55,7.25-25.96,11.14-19.17,13.67-5.78,28.72-2.98,54.6,10.15,85.41-59.26,41.46-92.66-31.36-23.83-76.98-4.03-81.38,34.62-.67,5.91,1.93,15.74,1.01,18.92-.66,2.29-9.03,9.22-11.41,12.21-11.91,14.97-18.03,31.52-20.03,50.54l-.22,279.41c2.34,23.86,14.12,46.43,34.22,59.89l232.63,136.15c-5.42,52.73,64.71,77.57,94.13,33.37,6.49-9.76,7.84-17.46,9.92-28.83l173.09-101c4.08-1.73,7.95,3.69,11.95,5.96,47.81,27.08,99.78-23.17,72.41-69.64-20.23-34.36-70.89-33.8-90.02,1.38ZM279.75,322.23c27.54-6.29,30.61,33.8,5.24,33.04-20.56-.62-20.6-29.53-5.24-33.04ZM528.19,908.31c-23.53,9.94-34.32-27.94-10.37-32.55,20.06-3.86,30.08,24.22,10.37,32.55ZM781.03,769.69c-13.96-4.41-12.87-29.07,2.46-32.28,29.62-6.2,27.9,41.87-2.46,32.28Z"/>
    <path class="cls-1" d="M850.51,505.08c-3.7-49.71,14.86-112.89-37.16-142.74l-281.73-162.49-5.48-.82-46.73,26.72-1.44,4.09.02,250.4h31.8c1.71-75.98,1.7-152.1,1.39-228.26-.01-1.2.11-2.35.75-3.4.58-.96,17.31-10.88,19.99-8.98l257.04,148.53c12.74,6.87,25.35,17.27,26.73,32.77l.1,85.62c-31.96,11.83-45.14,51.91-24.18,79.62,39.22,51.85,118.45-2.44,86.1-57.03-6.71-11.33-16.19-17.46-27.18-24.02ZM848.11,564c-12.57,21.79-44.91-3.6-26.41-21.56,13.7-13.3,36.59,3.91,26.41,21.56Z"/>
  </g>
  <path class="cls-1" d="M642.2,331.52h-164v322.27c0,39.86-12.84,60.13-40.54,60.13-32.43,0-41.89-26.35-52.02-74.99l-108.77,25.67c14.19,88.51,56.75,147.28,158.77,147.28,22.74,0,42.91-2.82,60.61-8.28,54.83-6.66,97.31-53.33,97.31-109.95v-60.81h40.54c90.53,0,154.72-41.89,154.72-154.04s-62.16-147.28-146.61-147.28ZM630.04,540.96h-36.48v-117.56h38.51c31.75,0,44.59,16.22,44.59,58.1s-14.19,59.45-46.62,59.45Z"/>
</svg>